<?xml version="1.0" standalone="no"?>
<!DOCTYPE svg PUBLIC "-//W3C//DTD SVG 20010904//EN"
 "http://www.w3.org/TR/2001/REC-SVG-20010904/DTD/svg10.dtd">
<svg version="1.0" xmlns="http://www.w3.org/2000/svg"
 width="2244.000000pt" height="2290.000000pt" viewBox="0 0 2244.000000 2290.000000"
 preserveAspectRatio="xMidYMid meet">

<g transform="translate(0.000000,2290.000000) scale(0.100000,-0.100000)"
fill="#000000" stroke="none">
<path d="M7360 21805 l0 -375 -1625 0 -1625 0 0 -1045 0 -1045 -215 0 -215 0
0 -210 0 -210 -1035 0 -1035 0 0 -1570 0 -1570 -425 0 -425 0 0 -1780 c0
-1180 -3 -1780 -10 -1780 -7 0 -10 -600 -10 -1780 l0 -1780 190 0 190 0 0
-1780 0 -1780 870 0 870 0 0 -490 0 -490 410 0 410 0 0 -1255 0 -1255 1840 0
1840 0 0 -35 0 -35 100 0 100 0 0 -340 0 -340 3580 0 3580 0 0 285 0 285 140
0 140 0 0 55 0 55 1700 0 1700 0 0 1055 0 1055 650 0 650 0 0 725 0 725 870 0
870 0 0 1780 0 1780 190 0 190 0 0 1780 c0 1180 -3 1780 -10 1780 -7 0 -10
600 -10 1780 l0 1780 -425 0 -425 0 0 1780 0 1780 -1250 0 -1250 0 0 25 c0 20
-5 25 -25 25 l-25 0 0 1110 0 1110 -1840 0 -1840 0 0 285 0 285 -3680 0 -3680
0 0 -375z m4525 315 c394 -25 750 -66 1132 -130 1840 -310 3589 -1127 5018
-2344 406 -346 853 -794 1206 -1207 1827 -2143 2739 -4992 2499 -7809 -203
-2376 -1165 -4581 -2761 -6325 -151 -165 -535 -548 -699 -696 -1674 -1518
-3818 -2460 -6060 -2663 -609 -55 -1271 -55 -1880 0 -2133 193 -4178 1054
-5815 2448 -406 346 -853 794 -1206 1207 -1827 2143 -2739 4992 -2499 7809
203 2376 1165 4581 2761 6325 151 165 535 548 699 696 1471 1334 3316 2231
5263 2559 476 80 904 123 1427 144 146 6 747 -3 915 -14z"/>
<path d="M5005 16035 c-137 -46 -482 -160 -765 -253 -283 -94 -514 -174 -514
-179 2 -6 404 -1246 1420 -4375 36 -109 60 -168 69 -168 7 0 15 4 17 9 2 4
314 180 693 390 380 210 697 386 705 391 87 52 2512 1441 2523 1445 10 5 224
-407 841 -1622 456 -895 831 -1631 835 -1634 3 -4 107 57 231 134 216 136
1701 1064 3691 2307 l947 591 30 122 c17 67 139 551 271 1075 214 850 237 952
218 939 -59 -38 -1864 -1114 -1877 -1119 -8 -3 -660 -391 -1447 -861 -788
-470 -1435 -852 -1437 -849 -2 4 -369 709 -816 1567 -447 858 -819 1570 -827
1583 l-14 23 -72 -38 c-40 -21 -74 -40 -77 -44 -10 -11 -169 -99 -180 -99 -5
0 -10 -4 -10 -9 0 -5 -16 -15 -35 -22 -19 -7 -35 -16 -35 -20 0 -4 -15 -12
-32 -20 -18 -7 -35 -16 -38 -19 -9 -12 -236 -140 -247 -140 -6 0 -13 -4 -15
-8 -4 -11 -162 -102 -176 -102 -7 0 -12 -4 -12 -9 0 -5 -16 -15 -35 -22 -19
-7 -35 -16 -35 -20 0 -4 -15 -12 -32 -20 -18 -7 -35 -16 -38 -19 -9 -12 -428
-250 -439 -250 -6 0 -11 -4 -11 -9 0 -5 -15 -14 -32 -22 -18 -7 -35 -16 -38
-19 -9 -12 -428 -250 -439 -250 -6 0 -11 -4 -11 -9 0 -5 -16 -15 -35 -22 -19
-7 -35 -16 -35 -20 0 -4 -15 -12 -32 -20 -18 -7 -35 -16 -38 -19 -9 -11 -167
-100 -178 -100 -5 0 -12 -4 -14 -8 -4 -11 -233 -142 -247 -142 -6 0 -11 -4
-11 -9 0 -5 -15 -14 -32 -22 -18 -7 -35 -16 -38 -19 -9 -12 -236 -140 -247
-140 -6 0 -13 -4 -15 -8 -4 -11 -162 -102 -176 -102 -7 0 -12 -4 -12 -9 0 -5
-16 -15 -35 -22 -19 -7 -35 -16 -35 -20 0 -4 -15 -12 -32 -20 -18 -7 -35 -16
-38 -19 -8 -10 -358 -210 -368 -210 -6 0 -591 1778 -825 2513 -28 86 -53 157
-56 156 -3 0 -118 -38 -256 -84z"/>
<path d="M15415 12555 c-55 -36 -131 -83 -170 -106 -38 -22 -106 -63 -150 -90
-44 -27 -91 -53 -104 -59 -13 -6 -42 -23 -65 -39 -32 -23 -282 -172 -521 -311
-69 -40 -158 -94 -417 -250 -150 -91 -280 -168 -288 -172 -8 -4 -28 -17 -43
-30 -27 -22 -69 -187 -883 -3423 -470 -1870 -859 -3417 -863 -3438 l-8 -37
798 0 798 0 10 38 c26 96 308 1209 1092 4297 467 1843 860 3386 874 3430 23
78 65 238 65 249 0 16 -33 0 -125 -59z m0 -170 c-14 -48 -25 -95 -25 -104 0
-10 -7 -5 -19 14 -10 17 -15 34 -11 39 11 11 -21 46 -42 46 -10 0 -18 6 -18
13 1 14 134 100 138 88 1 -4 -9 -48 -23 -96z m-135 -35 c0 -13 -26 -19 -50
-13 l-23 6 24 18 c23 17 49 11 49 -11z m-81 -62 c0 -13 -4 -31 -7 -41 -6 -15
-10 -13 -25 13 -11 18 -14 30 -7 30 6 0 8 5 5 10 -3 6 3 10 14 10 15 0 21 -6
20 -22z m141 -23 c17 -51 6 -67 -14 -21 -18 44 -20 56 -7 56 5 0 15 -16 21
-35z m-323 -57 c-3 -13 2 -46 12 -75 l17 -51 -23 -11 c-20 -9 -25 -7 -37 18
-9 16 -17 46 -20 67 -3 31 1 43 18 56 29 24 39 22 33 -4z m113 -20 c-27 -22
-49 -23 -56 -3 -13 33 2 44 41 32 l37 -11 -22 -18z m159 31 c6 9 9 6 9 -13 0
-35 -8 -38 -54 -22 l-38 13 29 14 c20 10 32 12 38 4 5 -7 10 -5 16 4z m-360
-95 c12 -48 53 -121 79 -141 23 -18 6 -29 -22 -14 -13 7 -23 20 -22 30 1 11
-7 16 -26 16 -38 1 -55 19 -38 40 19 23 -2 40 -48 39 -47 -2 -62 -9 -62 -30 0
-16 -5 -17 -38 -7 -21 5 -12 13 65 59 48 29 91 53 94 53 4 1 12 -20 18 -45z
m273 -18 c-2 -4 2 -12 9 -17 10 -6 4 -9 -18 -9 -29 0 -33 3 -33 26 0 14 5 35
11 46 11 21 12 21 24 -8 7 -16 10 -33 7 -38z m135 42 c-3 -8 -6 -5 -6 6 -1 11
2 17 5 13 3 -3 4 -12 1 -19z m-90 -104 c-3 -3 -12 -4 -19 -1 -8 3 -5 6 6 6 11
1 17 -2 13 -5z m-67 -42 c41 -3 68 1 91 12 18 9 36 13 41 8 10 -10 -5 -67 -18
-67 -5 0 -15 -4 -22 -8 -7 -5 -26 -5 -43 -2 -25 6 -31 3 -36 -14 -3 -12 -13
-21 -25 -21 -14 0 -18 5 -13 19 5 15 -2 22 -32 32 -20 6 -48 22 -62 35 -24 22
-24 23 -3 17 17 -4 22 -1 22 12 0 17 1 17 20 0 14 -12 41 -20 80 -23z m-425
-14 c-18 -11 -19 -37 -1 -60 16 -22 32 -23 40 -3 3 8 10 15 16 15 6 0 4 -7 -4
-16 -21 -20 -20 -31 3 -44 26 -14 31 -13 31 5 0 15 19 15 138 3 6 -1 12 -5 12
-9 0 -4 8 -10 18 -12 13 -4 12 -5 -5 -7 -24 -3 -41 -6 -45 -9 -2 -2 -12 -4
-23 -6 -76 -15 -159 -77 -197 -147 -18 -32 -18 -30 -18 144 l0 178 25 -12 c22
-10 23 -13 10 -20z m325 -58 c8 -5 11 -10 5 -10 -5 0 -17 5 -25 10 -8 5 -10
10 -5 10 6 0 17 -5 25 -10z m-20 -54 c0 -2 -7 -7 -16 -10 -8 -3 -12 -2 -9 4 6
10 25 14 25 6z m192 -130 c-14 -58 -29 -103 -33 -100 -4 2 -10 -21 -14 -51
l-6 -54 -22 19 c-23 22 -61 26 -101 10 -30 -11 -36 4 -7 19 10 6 22 22 25 36
4 14 13 25 21 25 8 0 15 9 15 20 0 13 -7 20 -19 20 -16 0 -18 6 -16 48 2 28
-2 56 -10 68 -13 20 -12 22 9 26 18 4 22 1 19 -12 -2 -9 5 -27 16 -41 18 -20
22 -22 31 -9 5 8 8 21 5 28 -4 11 51 44 77 46 3 1 10 4 14 8 20 21 19 -12 -4
-106z m-197 47 c1 -13 -2 -23 -6 -23 -5 0 -11 -11 -15 -25 -4 -15 -13 -25 -24
-25 -24 0 -35 -31 -15 -42 8 -5 15 -20 15 -34 0 -26 0 -26 -36 10 -41 41 -75
46 -130 20 -41 -20 -58 -68 -42 -117 21 -64 82 -86 132 -46 18 14 26 16 26 7
-1 -14 -29 -68 -30 -56 0 4 -13 3 -30 -2 -19 -6 -29 -5 -27 2 1 6 -5 12 -14
13 -30 5 -64 34 -83 69 -23 44 -16 109 19 156 27 36 90 83 119 87 11 2 25 8
33 14 7 6 13 9 13 6 0 -3 12 -2 28 2 46 13 65 8 67 -16z m-123 -162 c33 -17
56 -67 39 -84 -8 -8 -11 -5 -11 14 -1 63 -87 100 -110 47 -8 -19 -10 -20 -7
-3 2 18 43 47 56 41 3 -1 18 -8 33 -15z m-22 -86 c-7 -8 -20 -15 -29 -15 -11
0 -8 5 9 14 33 19 35 19 20 1z m240 -10 c0 -1 -12 -2 -26 -2 -14 0 -29 -4 -34
-9 -35 -39 0 -109 52 -102 18 3 27 1 25 -6 -2 -6 -35 -136 -73 -289 l-69 -277
-59 -42 c-55 -39 -58 -40 -38 -12 12 16 24 45 28 64 4 28 -2 20 -33 -40 -34
-67 -41 -75 -67 -75 -16 -1 -31 -6 -33 -12 -2 -6 -13 -9 -23 -6 -11 3 -20 0
-20 -6 0 -8 -6 -9 -17 -3 -10 5 -24 7 -30 5 -10 -3 -13 10 -13 49 0 48 3 56
25 68 41 22 111 103 125 145 17 51 21 117 8 133 -6 6 -8 12 -5 12 4 0 0 18 -8
40 -12 35 -12 40 0 41 8 1 19 2 24 3 5 0 21 11 35 23 22 20 25 29 21 64 -7 51
-17 72 -51 98 l-27 21 42 0 c22 0 41 5 41 11 0 5 4 7 10 4 5 -3 20 0 32 7 13
6 30 12 38 13 9 0 15 9 15 22 0 20 34 55 65 65 13 5 40 0 40 -7z m-383 -97
c10 -11 13 -26 9 -43 -6 -24 -4 -26 21 -23 24 3 28 7 28 35 0 17 3 29 7 26 5
-2 8 -13 8 -24 0 -10 4 -19 9 -19 5 0 11 -6 14 -13 4 -10 -1 -13 -17 -10 -25
5 -79 -33 -70 -49 4 -6 -7 0 -25 13 -30 22 -31 24 -31 103 1 80 1 81 17 51 8
-16 22 -38 30 -47z m-1054 20 c-11 -13 -23 -30 -26 -38 -4 -12 -6 -11 -6 3 -1
9 8 26 19 37 27 27 38 25 13 -2z m-36 -80 c-3 -8 -6 -5 -6 6 -1 11 2 17 5 13
3 -3 4 -12 1 -19z m-10 -40 c-3 -8 -6 -5 -6 6 -1 11 2 17 5 13 3 -3 4 -12 1
-19z m-10 -40 c-3 -8 -6 -5 -6 6 -1 11 2 17 5 13 3 -3 4 -12 1 -19z m1237 -29
c-9 -10 -27 -18 -38 -18 -20 1 -20 2 -1 6 30 8 45 23 46 47 1 18 2 18 6 3 3
-10 -3 -27 -13 -38z m-72 16 c3 -13 1 -22 -3 -19 -9 5 -13 44 -5 44 2 0 6 -11
8 -25z m-66 -37 c33 -37 63 -117 59 -153 -8 -61 -18 -102 -31 -116 -8 -8 -14
-20 -14 -26 0 -5 -11 -20 -25 -33 l-25 -23 0 36 c0 20 4 37 8 37 10 0 45 60
39 67 -3 3 -2 16 3 29 10 26 -13 119 -36 145 -15 17 -19 59 -6 59 5 0 17 -10
28 -22z m-1119 -30 c-3 -8 -6 -5 -6 6 -1 11 2 17 5 13 3 -3 4 -12 1 -19z m-10
-40 c-3 -8 -6 -5 -6 6 -1 11 2 17 5 13 3 -3 4 -12 1 -19z m-10 -40 c-3 -8 -6
-5 -6 6 -1 11 2 17 5 13 3 -3 4 -12 1 -19z m-10 -40 c-3 -8 -6 -5 -6 6 -1 11
2 17 5 13 3 -3 4 -12 1 -19z m-50 -200 c-3 -8 -6 -5 -6 6 -1 11 2 17 5 13 3
-3 4 -12 1 -19z m-10 -40 c-3 -8 -6 -5 -6 6 -1 11 2 17 5 13 3 -3 4 -12 1 -19z
m-10 -40 c-3 -8 -6 -5 -6 6 -1 11 2 17 5 13 3 -3 4 -12 1 -19z m-10 -40 c-3
-8 -6 -5 -6 6 -1 11 2 17 5 13 3 -3 4 -12 1 -19z m-10 -40 c-3 -8 -6 -5 -6 6
-1 11 2 17 5 13 3 -3 4 -12 1 -19z m-10 -40 c-3 -8 -6 -5 -6 6 -1 11 2 17 5
13 3 -3 4 -12 1 -19z m1425 -210 c-51 -208 -57 -225 -89 -254 -18 -18 -33 -37
-33 -45 0 -7 -2 -10 -5 -8 -2 3 -1 19 4 36 16 54 -40 98 -77 61 -9 -9 -12 3
-12 54 0 37 5 70 11 73 20 13 29 53 18 85 -6 16 -15 30 -20 30 -5 0 -9 19 -9
43 0 36 3 43 21 44 28 2 49 21 50 47 2 20 2 20 6 -1 5 -25 19 -30 26 -10 3 9
7 9 17 0 9 -9 21 -7 49 9 20 11 42 25 49 30 6 6 12 7 12 2 0 -5 5 -1 11 9 29
49 21 -4 -29 -205z m-1435 170 c-3 -8 -6 -5 -6 6 -1 11 2 17 5 13 3 -3 4 -12
1 -19z m-10 -40 c-3 -8 -6 -5 -6 6 -1 11 2 17 5 13 3 -3 4 -12 1 -19z m-10
-40 c-3 -8 -6 -5 -6 6 -1 11 2 17 5 13 3 -3 4 -12 1 -19z m-10 -40 c-3 -8 -6
-5 -6 6 -1 11 2 17 5 13 3 -3 4 -12 1 -19z m-10 -40 c-3 -8 -6 -5 -6 6 -1 11
2 17 5 13 3 -3 4 -12 1 -19z m-10 -40 c-3 -8 -6 -5 -6 6 -1 11 2 17 5 13 3 -3
4 -12 1 -19z m-10 -40 c-3 -8 -6 -5 -6 6 -1 11 2 17 5 13 3 -3 4 -12 1 -19z
m-10 -40 c-3 -8 -6 -5 -6 6 -1 11 2 17 5 13 3 -3 4 -12 1 -19z m-10 -40 c-3
-8 -6 -5 -6 6 -1 11 2 17 5 13 3 -3 4 -12 1 -19z m-10 -40 c-3 -8 -6 -5 -6 6
-1 11 2 17 5 13 3 -3 4 -12 1 -19z m-10 -40 c-3 -8 -6 -5 -6 6 -1 11 2 17 5
13 3 -3 4 -12 1 -19z m-10 -40 c-3 -8 -6 -5 -6 6 -1 11 2 17 5 13 3 -3 4 -12
1 -19z m1363 -25 c-1 -27 -1 -27 -15 -9 -19 25 -19 36 0 36 10 0 15 -10 15
-27z m-1373 -15 c-3 -8 -6 -5 -6 6 -1 11 2 17 5 13 3 -3 4 -12 1 -19z m-10
-40 c-3 -8 -6 -5 -6 6 -1 11 2 17 5 13 3 -3 4 -12 1 -19z m-38 -152 c-17 -70
-33 -125 -36 -123 -2 3 10 61 28 131 17 70 33 125 36 123 2 -3 -10 -61 -28
-131z m1511 131 c0 -2 -10 -12 -22 -23 l-23 -19 19 23 c18 21 26 27 26 19z
m-80 -82 c-7 -8 -10 -22 -6 -30 3 -8 2 -15 -3 -15 -5 0 -12 -10 -16 -22 -7
-21 -8 -20 -12 10 -3 25 1 37 19 52 28 23 35 25 18 5z m27 -117 c-2 -7 -15
-57 -27 -110 -13 -53 -27 -95 -32 -92 -4 3 -8 50 -8 104 0 94 1 99 23 103 41
8 49 7 44 -5z m-1500 -90 c-3 -8 -6 -5 -6 6 -1 11 2 17 5 13 3 -3 4 -12 1 -19z
m-10 -40 c-3 -8 -6 -5 -6 6 -1 11 2 17 5 13 3 -3 4 -12 1 -19z m-10 -40 c-3
-8 -6 -5 -6 6 -1 11 2 17 5 13 3 -3 4 -12 1 -19z m-10 -40 c-3 -8 -6 -5 -6 6
-1 11 2 17 5 13 3 -3 4 -12 1 -19z m-10 -40 c-3 -8 -6 -5 -6 6 -1 11 2 17 5
13 3 -3 4 -12 1 -19z m-10 -40 c-3 -8 -6 -5 -6 6 -1 11 2 17 5 13 3 -3 4 -12
1 -19z m-10 -40 c-3 -8 -6 -5 -6 6 -1 11 2 17 5 13 3 -3 4 -12 1 -19z m-10
-40 c-3 -8 -6 -5 -6 6 -1 11 2 17 5 13 3 -3 4 -12 1 -19z m-10 -40 c-3 -8 -6
-5 -6 6 -1 11 2 17 5 13 3 -3 4 -12 1 -19z m-10 -40 c-3 -8 -6 -5 -6 6 -1 11
2 17 5 13 3 -3 4 -12 1 -19z m-10 -40 c-3 -8 -6 -5 -6 6 -1 11 2 17 5 13 3 -3
4 -12 1 -19z m-10 -40 c-3 -8 -6 -5 -6 6 -1 11 2 17 5 13 3 -3 4 -12 1 -19z
m-10 -40 c-3 -8 -6 -5 -6 6 -1 11 2 17 5 13 3 -3 4 -12 1 -19z m-10 -40 c-3
-8 -6 -5 -6 6 -1 11 2 17 5 13 3 -3 4 -12 1 -19z m-10 -40 c-3 -8 -6 -5 -6 6
-1 11 2 17 5 13 3 -3 4 -12 1 -19z m-10 -40 c-3 -8 -6 -5 -6 6 -1 11 2 17 5
13 3 -3 4 -12 1 -19z m-10 -40 c-3 -8 -6 -5 -6 6 -1 11 2 17 5 13 3 -3 4 -12
1 -19z m-10 -40 c-3 -8 -6 -5 -6 6 -1 11 2 17 5 13 3 -3 4 -12 1 -19z m-10
-40 c-3 -8 -6 -5 -6 6 -1 11 2 17 5 13 3 -3 4 -12 1 -19z m-10 -40 c-3 -8 -6
-5 -6 6 -1 11 2 17 5 13 3 -3 4 -12 1 -19z m-10 -40 c-3 -8 -6 -5 -6 6 -1 11
2 17 5 13 3 -3 4 -12 1 -19z m-10 -40 c-3 -8 -6 -5 -6 6 -1 11 2 17 5 13 3 -3
4 -12 1 -19z m-10 -40 c-3 -8 -6 -5 -6 6 -1 11 2 17 5 13 3 -3 4 -12 1 -19z
m-10 -40 c-3 -8 -6 -5 -6 6 -1 11 2 17 5 13 3 -3 4 -12 1 -19z m-10 -40 c-3
-8 -6 -5 -6 6 -1 11 2 17 5 13 3 -3 4 -12 1 -19z m-10 -40 c-3 -8 -6 -5 -6 6
-1 11 2 17 5 13 3 -3 4 -12 1 -19z m-10 -40 c-3 -8 -6 -5 -6 6 -1 11 2 17 5
13 3 -3 4 -12 1 -19z m-10 -40 c-3 -8 -6 -5 -6 6 -1 11 2 17 5 13 3 -3 4 -12
1 -19z m-10 -40 c-3 -8 -6 -5 -6 6 -1 11 2 17 5 13 3 -3 4 -12 1 -19z m-10
-40 c-3 -8 -6 -5 -6 6 -1 11 2 17 5 13 3 -3 4 -12 1 -19z m1323 -117 c0 -110
-11 -168 -30 -156 -11 7 -56 17 -77 18 -10 0 -13 32 -13 124 l0 123 60 0 60 0
0 -109z m87 -131 c-33 -133 -61 -239 -63 -237 -4 4 24 154 46 238 9 38 16 102
16 152 l-1 87 31 0 32 0 -61 -240z m-1420 208 c-3 -8 -6 -5 -6 6 -1 11 2 17 5
13 3 -3 4 -12 1 -19z m-10 -40 c-3 -8 -6 -5 -6 6 -1 11 2 17 5 13 3 -3 4 -12
1 -19z m-10 -40 c-3 -8 -6 -5 -6 6 -1 11 2 17 5 13 3 -3 4 -12 1 -19z m-10
-40 c-3 -8 -6 -5 -6 6 -1 11 2 17 5 13 3 -3 4 -12 1 -19z m-10 -40 c-3 -8 -6
-5 -6 6 -1 11 2 17 5 13 3 -3 4 -12 1 -19z m-10 -40 c-3 -8 -6 -5 -6 6 -1 11
2 17 5 13 3 -3 4 -12 1 -19z m-10 -40 c-3 -8 -6 -5 -6 6 -1 11 2 17 5 13 3 -3
4 -12 1 -19z m1317 -23 c-4 -8 -12 -15 -19 -15 -7 0 -16 -6 -18 -12 -3 -7 -6
-1 -6 15 -1 22 3 27 24 27 18 0 23 -4 19 -15z m-1327 -17 c-3 -8 -6 -5 -6 6
-1 11 2 17 5 13 3 -3 4 -12 1 -19z m-10 -40 c-3 -8 -6 -5 -6 6 -1 11 2 17 5
13 3 -3 4 -12 1 -19z m1358 4 c-3 -3 -11 0 -18 7 -9 10 -8 11 6 5 10 -3 15 -9
12 -12z m-1368 -44 c-3 -8 -6 -5 -6 6 -1 11 2 17 5 13 3 -3 4 -12 1 -19z
m1413 -17 c0 -26 -3 -32 -9 -21 -6 8 -7 18 -5 22 3 5 -2 11 -10 14 -19 7 -13
21 9 21 11 0 15 -10 15 -36z m-63 -9 c17 -12 20 -21 13 -32 -6 -10 -10 -11
-10 -2 0 6 -9 21 -20 32 -24 24 -13 26 17 2z m-1360 -14 c-3 -8 -6 -5 -6 6 -1
11 2 17 5 13 3 -3 4 -12 1 -19z m-10 -40 c-3 -8 -6 -5 -6 6 -1 11 2 17 5 13 3
-3 4 -12 1 -19z m1373 -18 c0 -5 -5 -10 -11 -10 -5 0 -7 5 -4 10 3 6 8 10 11
10 2 0 4 -4 4 -10z m-1383 -22 c-3 -8 -6 -5 -6 6 -1 11 2 17 5 13 3 -3 4 -12
1 -19z m-10 -40 c-3 -8 -6 -5 -6 6 -1 11 2 17 5 13 3 -3 4 -12 1 -19z m1373
-2 c0 -2 -7 -7 -16 -10 -8 -3 -12 -2 -9 4 6 10 25 14 25 6z m83 -20 c5 -12
-22 -137 -39 -186 -9 -24 -34 31 -27 59 5 22 3 23 -21 17 -33 -8 -33 -2 -1 30
15 14 32 23 40 20 11 -4 15 2 15 18 0 47 21 73 33 42z m-1466 -18 c-3 -8 -6
-5 -6 6 -1 11 2 17 5 13 3 -3 4 -12 1 -19z m-20 -80 c-3 -8 -6 -5 -6 6 -1 11
2 17 5 13 3 -3 4 -12 1 -19z m-10 -40 c-3 -8 -6 -5 -6 6 -1 11 2 17 5 13 3 -3
4 -12 1 -19z m-10 -40 c-3 -8 -6 -5 -6 6 -1 11 2 17 5 13 3 -3 4 -12 1 -19z
m-10 -40 c-3 -8 -6 -5 -6 6 -1 11 2 17 5 13 3 -3 4 -12 1 -19z m1442 -54 c12
-28 7 -44 -13 -44 -13 0 -26 29 -26 58 0 22 26 13 39 -14z m-1462 -26 c-3 -8
-6 -5 -6 6 -1 11 2 17 5 13 3 -3 4 -12 1 -19z m-26 -95 c-12 -20 -14 -14 -5
12 4 9 9 14 11 11 3 -2 0 -13 -6 -23z m-21 -80 c-11 -17 -11 -17 -6 0 3 10 6
24 7 30 0 9 2 9 5 0 3 -7 0 -20 -6 -30z m1477 15 c-3 -8 -6 -5 -6 6 -1 11 2
17 5 13 3 -3 4 -12 1 -19z m-1497 -95 c-11 -17 -11 -17 -6 0 3 10 6 24 7 30 0
9 2 9 5 0 3 -7 0 -20 -6 -30z m-13 -55 c-3 -8 -6 -5 -6 6 -1 11 2 17 5 13 3
-3 4 -12 1 -19z m-20 -80 c-3 -8 -6 -5 -6 6 -1 11 2 17 5 13 3 -3 4 -12 1 -19z
m-20 -80 c-3 -8 -6 -5 -6 6 -1 11 2 17 5 13 3 -3 4 -12 1 -19z m-10 -40 c-3
-8 -6 -5 -6 6 -1 11 2 17 5 13 3 -3 4 -12 1 -19z m-10 -40 c-3 -8 -6 -5 -6 6
-1 11 2 17 5 13 3 -3 4 -12 1 -19z m-10 -40 c-3 -8 -6 -5 -6 6 -1 11 2 17 5
13 3 -3 4 -12 1 -19z m-50 -200 c-3 -8 -6 -5 -6 6 -1 11 2 17 5 13 3 -3 4 -12
1 -19z m-10 -40 c-3 -8 -6 -5 -6 6 -1 11 2 17 5 13 3 -3 4 -12 1 -19z m-30
-120 c-3 -8 -6 -5 -6 6 -1 11 2 17 5 13 3 -3 4 -12 1 -19z m-10 -40 c-3 -8 -6
-5 -6 6 -1 11 2 17 5 13 3 -3 4 -12 1 -19z m-10 -40 c-3 -8 -6 -5 -6 6 -1 11
2 17 5 13 3 -3 4 -12 1 -19z m-10 -40 c-3 -8 -6 -5 -6 6 -1 11 2 17 5 13 3 -3
4 -12 1 -19z m-40 -160 c-3 -8 -6 -5 -6 6 -1 11 2 17 5 13 3 -3 4 -12 1 -19z
m-10 -40 c-3 -8 -6 -5 -6 6 -1 11 2 17 5 13 3 -3 4 -12 1 -19z m-10 -40 c-3
-8 -6 -5 -6 6 -1 11 2 17 5 13 3 -3 4 -12 1 -19z m-10 -40 c-3 -8 -6 -5 -6 6
-1 11 2 17 5 13 3 -3 4 -12 1 -19z m-10 -40 c-3 -8 -6 -5 -6 6 -1 11 2 17 5
13 3 -3 4 -12 1 -19z m-10 -40 c-3 -8 -6 -5 -6 6 -1 11 2 17 5 13 3 -3 4 -12
1 -19z m-10 -40 c-3 -8 -6 -5 -6 6 -1 11 2 17 5 13 3 -3 4 -12 1 -19z m-10
-40 c-3 -8 -6 -5 -6 6 -1 11 2 17 5 13 3 -3 4 -12 1 -19z m-10 -40 c-3 -8 -6
-5 -6 6 -1 11 2 17 5 13 3 -3 4 -12 1 -19z m-10 -40 c-3 -8 -6 -5 -6 6 -1 11
2 17 5 13 3 -3 4 -12 1 -19z m-10 -40 c-3 -8 -6 -5 -6 6 -1 11 2 17 5 13 3 -3
4 -12 1 -19z m-10 -40 c-3 -8 -6 -5 -6 6 -1 11 2 17 5 13 3 -3 4 -12 1 -19z
m-10 -40 c-3 -8 -6 -5 -6 6 -1 11 2 17 5 13 3 -3 4 -12 1 -19z m-10 -40 c-3
-8 -6 -5 -6 6 -1 11 2 17 5 13 3 -3 4 -12 1 -19z m-10 -40 c-3 -8 -6 -5 -6 6
-1 11 2 17 5 13 3 -3 4 -12 1 -19z m-10 -40 c-3 -8 -6 -5 -6 6 -1 11 2 17 5
13 3 -3 4 -12 1 -19z m-10 -40 c-3 -8 -6 -5 -6 6 -1 11 2 17 5 13 3 -3 4 -12
1 -19z m-10 -40 c-3 -8 -6 -5 -6 6 -1 11 2 17 5 13 3 -3 4 -12 1 -19z m-10
-40 c-3 -8 -6 -5 -6 6 -1 11 2 17 5 13 3 -3 4 -12 1 -19z m-10 -40 c-3 -8 -6
-5 -6 6 -1 11 2 17 5 13 3 -3 4 -12 1 -19z m-10 -40 c-3 -8 -6 -5 -6 6 -1 11
2 17 5 13 3 -3 4 -12 1 -19z m-10 -40 c-3 -8 -6 -5 -6 6 -1 11 2 17 5 13 3 -3
4 -12 1 -19z m-10 -40 c-3 -8 -6 -5 -6 6 -1 11 2 17 5 13 3 -3 4 -12 1 -19z
m-10 -40 c-3 -8 -6 -5 -6 6 -1 11 2 17 5 13 3 -3 4 -12 1 -19z m-10 -40 c-3
-8 -6 -5 -6 6 -1 11 2 17 5 13 3 -3 4 -12 1 -19z m-10 -40 c-3 -8 -6 -5 -6 6
-1 11 2 17 5 13 3 -3 4 -12 1 -19z m-10 -40 c-3 -8 -6 -5 -6 6 -1 11 2 17 5
13 3 -3 4 -12 1 -19z m-10 -40 c-3 -8 -6 -5 -6 6 -1 11 2 17 5 13 3 -3 4 -12
1 -19z m-10 -40 c-3 -8 -6 -5 -6 6 -1 11 2 17 5 13 3 -3 4 -12 1 -19z m-33
-132 c-15 -59 -28 -105 -31 -103 -2 3 8 52 23 111 15 59 28 105 31 103 2 -3
-8 -52 -23 -111z m-37 -138 c-3 -8 -6 -5 -6 6 -1 11 2 17 5 13 3 -3 4 -12 1
-19z m-10 -40 c-3 -8 -6 -5 -6 6 -1 11 2 17 5 13 3 -3 4 -12 1 -19z m-10 -40
c-3 -8 -6 -5 -6 6 -1 11 2 17 5 13 3 -3 4 -12 1 -19z m-10 -40 c-3 -8 -6 -5
-6 6 -1 11 2 17 5 13 3 -3 4 -12 1 -19z m-10 -40 c-3 -8 -6 -5 -6 6 -1 11 2
17 5 13 3 -3 4 -12 1 -19z m-10 -40 c-3 -8 -6 -5 -6 6 -1 11 2 17 5 13 3 -3 4
-12 1 -19z m-10 -40 c-3 -8 -6 -5 -6 6 -1 11 2 17 5 13 3 -3 4 -12 1 -19z
m-10 -40 c-3 -8 -6 -5 -6 6 -1 11 2 17 5 13 3 -3 4 -12 1 -19z m-10 -40 c-3
-8 -6 -5 -6 6 -1 11 2 17 5 13 3 -3 4 -12 1 -19z m-10 -40 c-3 -8 -6 -5 -6 6
-1 11 2 17 5 13 3 -3 4 -12 1 -19z m-10 -40 c-3 -8 -6 -5 -6 6 -1 11 2 17 5
13 3 -3 4 -12 1 -19z m-10 -40 c-3 -8 -6 -5 -6 6 -1 11 2 17 5 13 3 -3 4 -12
1 -19z m-10 -40 c-3 -8 -6 -5 -6 6 -1 11 2 17 5 13 3 -3 4 -12 1 -19z"/>
</g>
</svg>
